# This file uses centimeters as units for non-parametric coordinates.

mtllib beam1.mtl
g default
v -12.071918 -0.038373 0.994230
v 13.818309 -0.038371 0.994230
v -12.071918 0.038373 0.994230
v 13.818309 0.038373 0.994230
v -12.071918 0.038373 -0.005770
v 13.818309 0.038373 -0.005770
v -12.071918 -0.038373 -0.005770
v 13.818309 -0.038371 -0.005770
v -12.071918 0.038373 0.130466
v 13.818309 0.038373 0.130466
v 13.818309 0.038373 -0.008222
v -12.071918 0.038373 -0.008222
v -12.071918 0.920586 0.130466
v 13.818309 0.920588 0.130466
v 13.818309 0.920588 -0.008222
v -12.071918 0.920586 -0.008222
vt 0.375000 0.000000
vt 0.625000 0.000000
vt 0.375000 0.250000
vt 0.625000 0.250000
vt 0.375000 0.500000
vt 0.625000 0.500000
vt 0.375000 0.750000
vt 0.625000 0.750000
vt 0.375000 1.000000
vt 0.625000 1.000000
vt 0.875000 0.000000
vt 0.875000 0.250000
vt 0.125000 0.000000
vt 0.125000 0.250000
vt 0.375000 0.250000
vt 0.625000 0.250000
vt 0.625000 0.500000
vt 0.375000 0.500000
vt 0.375000 0.250000
vt 0.625000 0.250000
vt 0.625000 0.500000
vt 0.375000 0.500000
vn 0.000000 0.000000 1.000000
vn 0.000000 0.000000 1.000000
vn 0.000000 0.000000 1.000000
vn 0.000000 0.000000 1.000000
vn -0.000000 1.000000 0.000000
vn -0.000000 1.000000 0.000000
vn -0.000000 1.000000 0.000000
vn -0.000000 1.000000 0.000000
vn 0.000000 0.000000 -1.000000
vn 0.000000 0.000000 -1.000000
vn 0.000000 0.000000 -1.000000
vn 0.000000 0.000000 -1.000000
vn 0.000000 -1.000000 0.000000
vn 0.000000 -1.000000 0.000000
vn 0.000000 -1.000000 0.000000
vn 0.000000 -1.000000 0.000000
vn 1.000000 -0.000010 0.000000
vn 1.000000 -0.000010 0.000000
vn 1.000000 -0.000010 0.000000
vn 1.000000 -0.000010 0.000000
vn -1.000000 0.000000 0.000000
vn -1.000000 0.000000 0.000000
vn -1.000000 0.000000 0.000000
vn -1.000000 0.000000 0.000000
vn 0.000000 1.000000 0.000000
vn 0.000000 1.000000 0.000000
vn 0.000000 1.000000 0.000000
vn 0.000000 1.000000 0.000000
vn 0.000000 -0.000000 0.000000
vn 0.000000 -0.000000 0.000000
vn 0.000000 -1.000000 0.000000
vn 0.000000 -1.000000 0.000000
vn 0.000000 -1.000000 0.000000
vn 0.000000 -1.000000 0.000000
vn 0.000000 0.000000 0.000000
vn 0.000000 0.000000 0.000000
vn 0.000000 0.000000 1.000000
vn 0.000000 0.000000 1.000000
vn 0.000000 0.000000 1.000000
vn 0.000000 0.000000 1.000000
vn 1.000000 0.000000 0.000000
vn 1.000000 0.000000 0.000000
vn 1.000000 0.000000 0.000000
vn 1.000000 0.000000 0.000000
vn 0.000000 0.000000 -1.000000
vn 0.000000 0.000000 -1.000000
vn 0.000000 0.000000 -1.000000
vn 0.000000 0.000000 -1.000000
vn -1.000000 0.000000 0.000000
vn -1.000000 0.000000 0.000000
vn -1.000000 0.000000 0.000000
vn -1.000000 0.000000 0.000000
s off
g pCube2
usemtl initialShadingGroup
f 1/1/1 2/2/2 4/4/3 3/3/4
f 13/19/5 14/20/6 15/21/7 16/22/8
f 5/5/9 6/6/10 8/8/11 7/7/12
f 7/7/13 8/8/14 2/10/15 1/9/16
f 2/2/17 8/11/18 6/12/19 4/4/20
f 7/13/21 1/1/22 3/3/23 5/14/24
s 1
f 3/3/25 4/4/26 10/16/27 9/15/28
f 4/4/26 6/6/29 11/17/30 10/16/27
s off
f 6/6/31 5/5/32 12/18/33 11/17/34
s 1
f 5/5/35 3/3/25 9/15/28 12/18/36
s off
f 9/15/37 10/16/38 14/20/39 13/19/40
f 10/16/41 11/17/42 15/21/43 14/20/44
f 11/17/45 12/18/46 16/22/47 15/21/48
f 12/18/49 9/15/50 13/19/51 16/22/52
g default
v -11.993225 0.068644 0.469998
v -11.871620 -0.012369 0.469998
v -8.686278 5.032387 0.469998
v -8.564673 4.951373 0.469998
v -8.686278 5.032387 0.338504
v -8.564673 4.951373 0.338504
v -11.993225 0.068644 0.338504
v -11.871620 -0.012369 0.338504
vt 0.375000 0.000000
vt 0.625000 0.000000
vt 0.375000 0.250000
vt 0.625000 0.250000
vt 0.375000 0.500000
vt 0.625000 0.500000
vt 0.375000 0.750000
vt 0.625000 0.750000
vt 0.375000 1.000000
vt 0.625000 1.000000
vt 0.875000 0.000000
vt 0.875000 0.250000
vt 0.125000 0.000000
vt 0.125000 0.250000
vn 0.000000 0.000000 1.000000
vn 0.000000 0.000000 1.000000
vn 0.000000 0.000000 1.000000
vn 0.000000 0.000000 1.000000
vn 0.554435 0.832227 0.000000
vn 0.554435 0.832227 0.000000
vn 0.554435 0.832227 0.000000
vn 0.554435 0.832227 0.000000
vn 0.000000 0.000000 -1.000000
vn 0.000000 0.000000 -1.000000
vn 0.000000 0.000000 -1.000000
vn 0.000000 0.000000 -1.000000
vn -0.554427 -0.832232 0.000000
vn -0.554427 -0.832232 0.000000
vn -0.554427 -0.832232 0.000000
vn -0.554427 -0.832232 0.000000
vn 0.832222 -0.554443 0.000000
vn 0.832222 -0.554443 0.000000
vn 0.832222 -0.554443 0.000000
vn 0.832222 -0.554443 0.000000
vn -0.832222 0.554443 0.000000
vn -0.832222 0.554443 0.000000
vn -0.832222 0.554443 0.000000
vn -0.832222 0.554443 0.000000
s off
g pCube3
usemtl initialShadingGroup
f 17/23/53 18/24/54 20/26/55 19/25/56
f 19/25/57 20/26/58 22/28/59 21/27/60
f 21/27/61 22/28/62 24/30/63 23/29/64
f 23/29/65 24/30/66 18/32/67 17/31/68
f 18/24/69 24/33/70 22/34/71 20/26/72
f 23/35/73 17/23/74 19/25/75 21/36/76
g default
v -8.612387 5.059510 0.469998
v -8.735370 4.980604 0.469998
v -5.391625 0.039417 0.469998
v -5.514608 -0.039488 0.469998
v -5.391625 0.039417 0.338504
v -5.514608 -0.039488 0.338504
v -8.612387 5.059510 0.338504
v -8.735370 4.980604 0.338504
vt 0.375000 0.000000
vt 0.625000 0.000000
vt 0.375000 0.250000
vt 0.625000 0.250000
vt 0.375000 0.500000
vt 0.625000 0.500000
vt 0.375000 0.750000
vt 0.625000 0.750000
vt 0.375000 1.000000
vt 0.625000 1.000000
vt 0.875000 0.000000
vt 0.875000 0.250000
vt 0.125000 0.000000
vt 0.125000 0.250000
vn 0.000000 -0.000000 1.000000
vn 0.000000 -0.000000 1.000000
vn 0.000000 -0.000000 1.000000
vn 0.000000 -0.000000 1.000000
vn 0.540002 -0.841664 0.000000
vn 0.540002 -0.841664 0.000000
vn 0.540002 -0.841664 0.000000
vn 0.540002 -0.841664 0.000000
vn 0.000000 0.000000 -1.000000
vn 0.000000 0.000000 -1.000000
vn 0.000000 0.000000 -1.000000
vn 0.000000 0.000000 -1.000000
vn -0.540010 0.841659 0.000000
vn -0.540010 0.841659 0.000000
vn -0.540010 0.841659 0.000000
vn -0.540010 0.841659 0.000000
vn -0.841669 -0.539993 0.000000
vn -0.841669 -0.539993 0.000000
vn -0.841669 -0.539993 0.000000
vn -0.841669 -0.539993 0.000000
vn 0.841669 0.539993 0.000000
vn 0.841669 0.539993 0.000000
vn 0.841669 0.539993 0.000000
vn 0.841669 0.539993 0.000000
s off
g pCube4
usemtl initialShadingGroup
f 25/37/77 26/38/78 28/40/79 27/39/80
f 27/39/81 28/40/82 30/42/83 29/41/84
f 29/41/85 30/42/86 32/44/87 31/43/88
f 31/43/89 32/44/90 26/46/91 25/45/92
f 26/38/93 32/47/94 30/48/95 28/40/96
f 31/49/97 25/37/98 27/39/99 29/50/100
g default
v -5.572833 0.068644 0.469998
v -5.451227 -0.012369 0.469998
v -2.265886 5.032387 0.469998
v -2.144281 4.951373 0.469998
v -2.265886 5.032387 0.338504
v -2.144281 4.951373 0.338504
v -5.572833 0.068644 0.338504
v -5.451227 -0.012369 0.338504
vt 0.375000 0.000000
vt 0.625000 0.000000
vt 0.375000 0.250000
vt 0.625000 0.250000
vt 0.375000 0.500000
vt 0.625000 0.500000
vt 0.375000 0.750000
vt 0.625000 0.750000
vt 0.375000 1.000000
vt 0.625000 1.000000
vt 0.875000 0.000000
vt 0.875000 0.250000
vt 0.125000 0.000000
vt 0.125000 0.250000
vn 0.000000 0.000000 1.000000
vn 0.000000 0.000000 1.000000
vn 0.000000 0.000000 1.000000
vn 0.000000 0.000000 1.000000
vn 0.554435 0.832227 0.000000
vn 0.554435 0.832227 0.000000
vn 0.554435 0.832227 0.000000
vn 0.554435 0.832227 0.000000
vn 0.000000 0.000000 -1.000000
vn 0.000000 0.000000 -1.000000
vn 0.000000 0.000000 -1.000000
vn 0.000000 0.000000 -1.000000
vn -0.554427 -0.832232 0.000000
vn -0.554427 -0.832232 0.000000
vn -0.554427 -0.832232 0.000000
vn -0.554427 -0.832232 0.000000
vn 0.832222 -0.554443 0.000000
vn 0.832222 -0.554443 0.000000
vn 0.832222 -0.554443 0.000000
vn 0.832222 -0.554443 0.000000
vn -0.832222 0.554443 0.000000
vn -0.832222 0.554443 0.000000
vn -0.832222 0.554443 0.000000
vn -0.832222 0.554443 0.000000
s off
g pCube5
usemtl initialShadingGroup
f 33/51/101 34/52/102 36/54/103 35/53/104
f 35/53/105 36/54/106 38/56/107 37/55/108
f 37/55/109 38/56/110 40/58/111 39/57/112
f 39/57/113 40/58/114 34/60/115 33/59/116
f 34/52/117 40/61/118 38/62/119 36/54/120
f 39/63/121 33/51/122 35/53/123 37/64/124
g default
v -2.191994 5.059510 0.469998
v -2.314977 4.980604 0.469998
v 1.028768 0.039417 0.469998
v 0.905784 -0.039488 0.469998
v 1.028768 0.039417 0.338504
v 0.905784 -0.039488 0.338504
v -2.191994 5.059510 0.338504
v -2.314977 4.980604 0.338504
vt 0.375000 0.000000
vt 0.625000 0.000000
vt 0.375000 0.250000
vt 0.625000 0.250000
vt 0.375000 0.500000
vt 0.625000 0.500000
vt 0.375000 0.750000
vt 0.625000 0.750000
vt 0.375000 1.000000
vt 0.625000 1.000000
vt 0.875000 0.000000
vt 0.875000 0.250000
vt 0.125000 0.000000
vt 0.125000 0.250000
vn 0.000000 -0.000000 1.000000
vn 0.000000 -0.000000 1.000000
vn 0.000000 -0.000000 1.000000
vn 0.000000 -0.000000 1.000000
vn 0.540002 -0.841664 0.000000
vn 0.540002 -0.841664 0.000000
vn 0.540002 -0.841664 0.000000
vn 0.540002 -0.841664 0.000000
vn 0.000000 0.000000 -1.000000
vn 0.000000 0.000000 -1.000000
vn 0.000000 0.000000 -1.000000
vn 0.000000 0.000000 -1.000000
vn -0.540010 0.841659 0.000000
vn -0.540010 0.841659 0.000000
vn -0.540010 0.841659 0.000000
vn -0.540010 0.841659 0.000000
vn -0.841669 -0.539993 0.000000
vn -0.841669 -0.539993 0.000000
vn -0.841669 -0.539993 0.000000
vn -0.841669 -0.539993 0.000000
vn 0.841669 0.539993 0.000000
vn 0.841669 0.539993 0.000000
vn 0.841669 0.539993 0.000000
vn 0.841669 0.539993 0.000000
s off
g pCube6
usemtl initialShadingGroup
f 41/65/125 42/66/126 44/68/127 43/67/128
f 43/67/129 44/68/130 46/70/131 45/69/132
f 45/69/133 46/70/134 48/72/135 47/71/136
f 47/71/137 48/72/138 42/74/139 41/73/140
f 42/66/141 48/75/142 46/76/143 44/68/144
f 47/77/145 41/65/146 43/67/147 45/78/148
g default
v 0.877130 0.068644 0.469998
v 0.998736 -0.012369 0.469998
v 4.184077 5.032387 0.469998
v 4.305682 4.951373 0.469998
v 4.184077 5.032387 0.338504
v 4.305682 4.951373 0.338504
v 0.877130 0.068644 0.338504
v 0.998736 -0.012369 0.338504
vt 0.375000 0.000000
vt 0.625000 0.000000
vt 0.375000 0.250000
vt 0.625000 0.250000
vt 0.375000 0.500000
vt 0.625000 0.500000
vt 0.375000 0.750000
vt 0.625000 0.750000
vt 0.375000 1.000000
vt 0.625000 1.000000
vt 0.875000 0.000000
vt 0.875000 0.250000
vt 0.125000 0.000000
vt 0.125000 0.250000
vn 0.000000 0.000000 1.000000
vn 0.000000 0.000000 1.000000
vn 0.000000 0.000000 1.000000
vn 0.000000 0.000000 1.000000
vn 0.554435 0.832227 0.000000
vn 0.554435 0.832227 0.000000
vn 0.554435 0.832227 0.000000
vn 0.554435 0.832227 0.000000
vn 0.000000 0.000000 -1.000000
vn 0.000000 0.000000 -1.000000
vn 0.000000 0.000000 -1.000000
vn 0.000000 0.000000 -1.000000
vn -0.554427 -0.832232 0.000000
vn -0.554427 -0.832232 0.000000
vn -0.554427 -0.832232 0.000000
vn -0.554427 -0.832232 0.000000
vn 0.832222 -0.554443 0.000000
vn 0.832222 -0.554443 0.000000
vn 0.832222 -0.554443 0.000000
vn 0.832222 -0.554443 0.000000
vn -0.832222 0.554443 0.000000
vn -0.832222 0.554443 0.000000
vn -0.832222 0.554443 0.000000
vn -0.832222 0.554443 0.000000
s off
g pCube7
usemtl initialShadingGroup
f 49/79/149 50/80/150 52/82/151 51/81/152
f 51/81/153 52/82/154 54/84/155 53/83/156
f 53/83/157 54/84/158 56/86/159 55/85/160
f 55/85/161 56/86/162 50/88/163 49/87/164
f 50/80/165 56/89/166 54/90/167 52/82/168
f 55/91/169 49/79/170 51/81/171 53/92/172
g default
v 4.257968 5.059510 0.469998
v 4.134986 4.980604 0.469998
v 7.478731 0.039417 0.469998
v 7.355747 -0.039488 0.469998
v 7.478731 0.039417 0.338504
v 7.355747 -0.039488 0.338504
v 4.257968 5.059510 0.338504
v 4.134986 4.980604 0.338504
vt 0.375000 0.000000
vt 0.625000 0.000000
vt 0.375000 0.250000
vt 0.625000 0.250000
vt 0.375000 0.500000
vt 0.625000 0.500000
vt 0.375000 0.750000
vt 0.625000 0.750000
vt 0.375000 1.000000
vt 0.625000 1.000000
vt 0.875000 0.000000
vt 0.875000 0.250000
vt 0.125000 0.000000
vt 0.125000 0.250000
vn 0.000000 -0.000000 1.000000
vn 0.000000 -0.000000 1.000000
vn 0.000000 -0.000000 1.000000
vn 0.000000 -0.000000 1.000000
vn 0.540002 -0.841664 0.000000
vn 0.540002 -0.841664 0.000000
vn 0.540002 -0.841664 0.000000
vn 0.540002 -0.841664 0.000000
vn 0.000000 0.000000 -1.000000
vn 0.000000 0.000000 -1.000000
vn 0.000000 0.000000 -1.000000
vn 0.000000 0.000000 -1.000000
vn -0.540010 0.841659 0.000000
vn -0.540010 0.841659 0.000000
vn -0.540010 0.841659 0.000000
vn -0.540010 0.841659 0.000000
vn -0.841669 -0.539993 0.000000
vn -0.841669 -0.539993 0.000000
vn -0.841669 -0.539993 0.000000
vn -0.841669 -0.539993 0.000000
vn 0.841669 0.539993 0.000000
vn 0.841669 0.539993 0.000000
vn 0.841669 0.539993 0.000000
vn 0.841669 0.539993 0.000000
s off
g pCube8
usemtl initialShadingGroup
f 57/93/173 58/94/174 60/96/175 59/95/176
f 59/95/177 60/96/178 62/98/179 61/97/180
f 61/97/181 62/98/182 64/100/183 63/99/184
f 63/99/185 64/100/186 58/102/187 57/101/188
f 58/94/189 64/103/190 62/104/191 60/96/192
f 63/105/193 57/93/194 59/95/195 61/106/196
g default
v 7.359633 0.068644 0.469998
v 7.481238 -0.012369 0.469998
v 10.666580 5.032387 0.469998
v 10.788184 4.951373 0.469998
v 10.666580 5.032387 0.338504
v 10.788184 4.951373 0.338504
v 7.359633 0.068644 0.338504
v 7.481238 -0.012369 0.338504
vt 0.375000 0.000000
vt 0.625000 0.000000
vt 0.375000 0.250000
vt 0.625000 0.250000
vt 0.375000 0.500000
vt 0.625000 0.500000
vt 0.375000 0.750000
vt 0.625000 0.750000
vt 0.375000 1.000000
vt 0.625000 1.000000
vt 0.875000 0.000000
vt 0.875000 0.250000
vt 0.125000 0.000000
vt 0.125000 0.250000
vn 0.000000 0.000000 1.000000
vn 0.000000 0.000000 1.000000
vn 0.000000 0.000000 1.000000
vn 0.000000 0.000000 1.000000
vn 0.554435 0.832227 0.000000
vn 0.554435 0.832227 0.000000
vn 0.554435 0.832227 0.000000
vn 0.554435 0.832227 0.000000
vn 0.000000 0.000000 -1.000000
vn 0.000000 0.000000 -1.000000
vn 0.000000 0.000000 -1.000000
vn 0.000000 0.000000 -1.000000
vn -0.554427 -0.832232 0.000000
vn -0.554427 -0.832232 0.000000
vn -0.554427 -0.832232 0.000000
vn -0.554427 -0.832232 0.000000
vn 0.832222 -0.554443 0.000000
vn 0.832222 -0.554443 0.000000
vn 0.832222 -0.554443 0.000000
vn 0.832222 -0.554443 0.000000
vn -0.832222 0.554443 0.000000
vn -0.832222 0.554443 0.000000
vn -0.832222 0.554443 0.000000
vn -0.832222 0.554443 0.000000
s off
g pCube9
usemtl initialShadingGroup
f 65/107/197 66/108/198 68/110/199 67/109/200
f 67/109/201 68/110/202 70/112/203 69/111/204
f 69/111/205 70/112/206 72/114/207 71/113/208
f 71/113/209 72/114/210 66/116/211 65/115/212
f 66/108/213 72/117/214 70/118/215 68/110/216
f 71/119/217 65/107/218 67/109/219 69/120/220
g default
v 10.740471 5.059510 0.469998
v 10.617488 4.980604 0.469998
v 13.961233 0.039417 0.469998
v 13.838249 -0.039488 0.469998
v 13.961233 0.039417 0.338504
v 13.838249 -0.039488 0.338504
v 10.740471 5.059510 0.338504
v 10.617488 4.980604 0.338504
vt 0.375000 0.000000
vt 0.625000 0.000000
vt 0.375000 0.250000
vt 0.625000 0.250000
vt 0.375000 0.500000
vt 0.625000 0.500000
vt 0.375000 0.750000
vt 0.625000 0.750000
vt 0.375000 1.000000
vt 0.625000 1.000000
vt 0.875000 0.000000
vt 0.875000 0.250000
vt 0.125000 0.000000
vt 0.125000 0.250000
vn 0.000000 -0.000000 1.000000
vn 0.000000 -0.000000 1.000000
vn 0.000000 -0.000000 1.000000
vn 0.000000 -0.000000 1.000000
vn 0.540002 -0.841664 0.000000
vn 0.540002 -0.841664 0.000000
vn 0.540002 -0.841664 0.000000
vn 0.540002 -0.841664 0.000000
vn 0.000000 0.000000 -1.000000
vn 0.000000 0.000000 -1.000000
vn 0.000000 0.000000 -1.000000
vn 0.000000 0.000000 -1.000000
vn -0.540010 0.841659 0.000000
vn -0.540010 0.841659 0.000000
vn -0.540010 0.841659 0.000000
vn -0.540010 0.841659 0.000000
vn -0.841669 -0.539993 0.000000
vn -0.841669 -0.539993 0.000000
vn -0.841669 -0.539993 0.000000
vn -0.841669 -0.539993 0.000000
vn 0.841669 0.539993 0.000000
vn 0.841669 0.539993 0.000000
vn 0.841669 0.539993 0.000000
vn 0.841669 0.539993 0.000000
s off
g pCube10
usemtl initialShadingGroup
f 73/121/221 74/122/222 76/124/223 75/123/224
f 75/123/225 76/124/226 78/126/227 77/125/228
f 77/125/229 78/126/230 80/128/231 79/127/232
f 79/127/233 80/128/234 74/130/235 73/129/236
f 74/122/237 80/131/238 78/132/239 76/124/240
f 79/133/241 73/121/242 75/123/243 77/134/244
g default
v 13.818358 5.042344 0.994230
v -12.071824 5.089962 0.994230
v 13.818217 4.965598 0.994230
v -12.071966 5.013218 0.994230
v 13.818217 4.965598 -0.005770
v -12.071966 5.013218 -0.005770
v 13.818358 5.042344 -0.005770
v -12.071824 5.089962 -0.005770
v 13.818217 4.965598 0.130466
v -12.071966 5.013218 0.130466
v -12.071966 5.013218 -0.008222
v 13.818217 4.965598 -0.008222
v 13.816594 4.083386 0.130466
v -12.073589 4.131004 0.130466
v -12.073589 4.131004 -0.008222
v 13.816594 4.083386 -0.008222
vt 0.375000 0.000000
vt 0.625000 0.000000
vt 0.375000 0.250000
vt 0.625000 0.250000
vt 0.375000 0.500000
vt 0.625000 0.500000
vt 0.375000 0.750000
vt 0.625000 0.750000
vt 0.375000 1.000000
vt 0.625000 1.000000
vt 0.875000 0.000000
vt 0.875000 0.250000
vt 0.125000 0.000000
vt 0.125000 0.250000
vt 0.375000 0.250000
vt 0.625000 0.250000
vt 0.625000 0.500000
vt 0.375000 0.500000
vt 0.375000 0.250000
vt 0.625000 0.250000
vt 0.625000 0.500000
vt 0.375000 0.500000
vn 0.000000 0.000000 1.000000
vn 0.000000 0.000000 1.000000
vn 0.000000 0.000000 1.000000
vn 0.000000 0.000000 1.000000
vn -0.001839 -0.999998 0.000000
vn -0.001839 -0.999998 0.000000
vn -0.001839 -0.999998 0.000000
vn -0.001839 -0.999998 0.000000
vn -0.000000 0.000000 -1.000000
vn -0.000000 0.000000 -1.000000
vn -0.000000 0.000000 -1.000000
vn -0.000000 0.000000 -1.000000
vn 0.001839 0.999998 0.000000
vn 0.001839 0.999998 0.000000
vn 0.001839 0.999998 0.000000
vn 0.001839 0.999998 0.000000
vn -0.999998 0.001849 0.000000
vn -0.999998 0.001849 0.000000
vn -0.999998 0.001849 0.000000
vn -0.999998 0.001849 0.000000
vn 0.999998 -0.001839 0.000000
vn 0.999998 -0.001839 0.000000
vn 0.999998 -0.001839 0.000000
vn 0.999998 -0.001839 0.000000
vn -0.001839 -0.999998 0.000000
vn -0.001839 -0.999998 0.000000
vn -0.001839 -0.999998 0.000000
vn -0.001839 -0.999998 0.000000
vn 0.000000 0.000000 0.000000
vn 0.000000 0.000000 0.000000
vn 0.001839 0.999998 0.000000
vn 0.001839 0.999998 0.000000
vn 0.001839 0.999998 0.000000
vn 0.001839 0.999998 0.000000
vn 0.000000 0.000000 0.000000
vn 0.000000 0.000000 0.000000
vn 0.000000 0.000000 1.000000
vn 0.000000 0.000000 1.000000
vn 0.000000 0.000000 1.000000
vn 0.000000 0.000000 1.000000
vn -0.999998 0.001839 0.000000
vn -0.999998 0.001839 0.000000
vn -0.999998 0.001839 0.000000
vn -0.999998 0.001839 0.000000
vn -0.000000 0.000000 -1.000000
vn -0.000000 0.000000 -1.000000
vn -0.000000 0.000000 -1.000000
vn -0.000000 0.000000 -1.000000
vn 0.999998 -0.001839 0.000000
vn 0.999998 -0.001839 0.000000
vn 0.999998 -0.001839 0.000000
vn 0.999998 -0.001839 0.000000
s off
g pCube11
usemtl initialShadingGroup
f 81/135/245 82/136/246 84/138/247 83/137/248
f 93/153/249 94/154/250 95/155/251 96/156/252
f 85/139/253 86/140/254 88/142/255 87/141/256
f 87/141/257 88/142/258 82/144/259 81/143/260
f 82/136/261 88/145/262 86/146/263 84/138/264
f 87/147/265 81/135/266 83/137/267 85/148/268
s 1
f 83/137/269 84/138/270 90/150/271 89/149/272
f 84/138/270 86/140/273 91/151/274 90/150/271
s off
f 86/140/275 85/139/276 92/152/277 91/151/278
s 1
f 85/139/279 83/137/269 89/149/272 92/152/280
s off
f 89/149/281 90/150/282 94/154/283 93/153/284
f 90/150/285 91/151/286 95/155/287 94/154/288
f 91/151/289 92/152/290 96/156/291 95/155/292
f 92/152/293 89/149/294 93/153/295 96/156/296
